<svg width="752" height="752" viewBox="0 0 752 752" fill="none" xmlns="http://www.w3.org/2000/svg">
<g clip-path="url(#clip0_48_3)">
<path d="M0 0C248.16 0 496.32 0 752 0C752 248.16 752 496.32 752 752C503.84 752 255.68 752 0 752C0 503.84 0 255.68 0 0Z" fill="black"/>
<path d="M300.035 306C300.43 306.144 300.824 306.289 301.231 306.438C301.991 306.716 301.991 306.716 302.768 307C303.461 307.34 303.461 307.34 304.168 307.688C305.758 308.061 306.296 307.313 307.686 306C308.916 306.375 308.916 306.375 309.872 307C308.934 309.193 308.244 309.992 306.798 310.938C304.197 311.026 302.313 309.158 300.035 307C300.035 306.67 300.035 306.34 300.035 306Z" fill="#292B2A"/>
<path d="M361.245 291C361.425 291 361.605 291 361.791 291C361.611 293.97 361.43 296.94 361.245 300C360.704 300 360.163 300 359.605 300C359.425 299.01 359.244 298.02 359.059 297C360.083 293.812 360.083 293.812 361.245 291Z" fill="#1A1B1B"/>
<path d="M577.116 306C576.331 308 576.331 308 574.93 310C573.275 310.354 571.67 310.233 570.012 310C571.344 308.375 572.402 307.343 573.871 306.312C574.25 306.04 574.628 305.769 575.018 305.488C576.023 305 576.023 305 577.116 306Z" fill="#333434"/>
<path d="M554.162 316C553.982 316.66 553.801 317.32 553.615 318C554.517 318.33 555.419 318.66 556.348 319C554.263 320.467 552.91 319.433 550.883 318C550.883 317.34 550.883 316.68 550.883 316C552.244 314.754 552.747 315.223 554.162 316Z" fill="#3D3F3E"/>
<path d="M427 253.724C430.178 256.123 432.766 258.374 435 261.724C435.375 264.724 435.375 264.724 435 267.724C434.327 268.181 433.654 268.637 432.961 269.107C431.99 269.908 431.99 269.908 431 270.724C430.735 273.039 430.735 273.039 431.25 275.599C431.833 280.049 432.115 284.359 432.125 288.849C432.128 289.945 432.13 291.041 432.133 292.17C432 294.724 432 294.724 431 295.724C430.619 300.416 431.504 303.442 433.5 307.662C435.564 312.369 436.776 315.624 436 320.724C434 322.724 434 322.724 430.375 322.849C429.261 322.808 428.148 322.767 427 322.724C427.012 323.507 427.023 324.289 427.035 325.095C427.049 326.613 427.049 326.613 427.062 328.162C427.074 329.171 427.086 330.18 427.098 331.22C427 333.724 427 333.724 426 334.724C425.856 335.838 425.711 336.952 425.562 338.099C425 341.724 425 341.724 423 344.724C429.557 345.833 434.159 346.3 439.957 342.845C443.711 340.785 447.881 339.824 452 338.724C452.625 338.552 453.25 338.379 453.895 338.201C468.387 334.921 483.369 339.09 497 343.724C497 344.384 497 345.044 497 345.724C501.053 344.8 504.672 343.865 508.5 342.224C516.392 338.842 523.388 338.436 531.875 338.537C533.412 338.538 533.412 338.538 534.98 338.539C539.843 338.567 544.481 338.767 549.289 339.502C554.508 340.079 557.348 338.476 561.5 335.474C570.451 329.238 578.934 327.282 589.789 327.318C591.872 327.298 593.955 327.278 596.037 327.258C597.114 327.253 598.191 327.248 599.3 327.242C615.43 327.155 631.504 326.884 647.562 325.287C648.818 325.164 650.074 325.042 651.368 324.916C656.221 324.397 660.948 323.805 665.691 322.642C670.593 321.471 675.353 321.424 680.375 321.474C681.83 321.481 681.83 321.481 683.314 321.488C689.884 321.569 696.278 322.107 702.788 322.938C717.41 324.638 732.295 324.43 747 324.724C747.33 326.374 747.66 328.024 748 329.724C742.764 333.687 737.193 335.654 731 337.724C730.134 338.061 729.267 338.397 728.375 338.744C723.486 340.164 718.546 340.684 713.5 341.287C711.469 341.537 709.437 341.788 707.406 342.041C705.995 342.215 705.995 342.215 704.555 342.393C701.689 342.765 698.844 343.213 696 343.724C696 344.384 696 345.044 696 345.724C697.104 345.906 697.104 345.906 698.23 346.091C699.206 346.259 700.182 346.427 701.188 346.599C702.632 346.843 702.632 346.843 704.105 347.091C708.08 347.96 711.095 348.819 714 351.724C713.67 355.021 713.377 356.347 711 358.724C708.303 358.891 705.722 358.934 703.027 358.877C702.23 358.863 701.433 358.85 700.612 358.837C698.92 358.804 697.227 358.766 695.535 358.723C692.972 358.663 690.41 358.639 687.846 358.617C673.232 358.351 673.232 358.351 666.659 353.84C663.113 351.456 659.04 352.083 655 352.724C652.523 353.542 650.353 354.572 648 355.724C647.01 355.724 646.02 355.724 645 355.724C645 356.384 645 357.044 645 357.724C642.36 358.384 639.72 359.044 637 359.724C637 360.384 637 361.044 637 361.724C635.992 362.143 634.984 362.562 633.945 362.994C630.809 364.337 627.785 365.84 624.763 367.427C608.044 376.148 590.256 383.592 571.203 383.869C569.97 383.89 568.736 383.912 567.465 383.934C565.001 383.96 562.536 383.953 560.072 383.908C551.197 383.958 546.793 386.231 540 391.724C537.549 393.25 535.024 394.57 532.438 395.849C531.771 396.181 531.105 396.513 530.419 396.855C519.759 401.964 507.628 405.706 495.781 405.97C494.602 406.003 493.422 406.036 492.207 406.07C489.736 406.131 487.264 406.188 484.793 406.242C483.613 406.276 482.434 406.31 481.219 406.345C480.146 406.37 479.072 406.395 477.967 406.421C474.918 406.733 472.719 407.321 470 408.724C468.419 411.314 468.419 411.314 467.375 414.412C466.749 416.044 466.749 416.044 466.109 417.709C465.56 419.201 465.56 419.201 465 420.724C459.097 435.481 450.261 448.126 440.73 460.724C432.121 472.136 426.496 484.332 421.727 497.729C420.518 501.049 419.198 504.324 417.875 507.599C417.419 508.731 416.962 509.863 416.492 511.029C416 512.248 415.507 513.468 415 514.724C414.563 515.861 414.563 515.861 414.117 517.02C411.666 523.333 408.817 529.345 405.688 535.349C405.016 536.683 405.016 536.683 404.33 538.045C396.73 552.665 386.7 558.85 371.418 563.744C361.76 566.222 351.317 565.882 341.41 565.892C340.263 565.896 339.116 565.899 337.934 565.902C335.529 565.907 333.123 565.91 330.717 565.91C327.075 565.912 323.433 565.93 319.791 565.949C284.907 566.036 284.907 566.036 274.277 557.31C271.837 554.768 271.022 552.948 270.68 549.451C271.045 545.2 272.206 542.701 274.25 538.974C280.669 526.775 283.946 514.099 287 500.724C287.192 499.889 287.384 499.054 287.582 498.194C288.78 492.656 289.355 487.388 289.312 481.724C289.307 480.913 289.301 480.102 289.295 479.267C288.982 463.244 285.718 449.221 277.438 435.349C271.758 425.487 269.567 413.627 267.578 402.541C267.291 399.832 267.291 399.832 266 398.724C263.812 398.614 261.62 398.568 259.43 398.548C258.043 398.525 256.656 398.501 255.27 398.476C253.096 398.442 250.923 398.412 248.749 398.398C235.449 398.298 223.071 396.566 211.25 389.974C209.556 389.054 209.556 389.054 207.828 388.115C205.535 386.792 203.638 385.414 201.618 383.684C193.846 377.201 188.143 376.839 178.25 377.474C167.36 377.881 158.251 377.769 148 373.724C147.014 373.362 146.028 373 145.012 372.627C135.685 368.982 126.801 364.217 117.902 359.647C102.26 350.733 102.26 350.733 85 348.724C81.8415 351.051 81.8415 351.051 79 353.724C73.7444 356.05 68.5874 356.117 62.9375 356.287C55.4176 356.544 55.4176 356.544 48 357.724C46.2733 357.836 44.5427 357.899 42.8125 357.912C41.9527 357.926 41.0929 357.94 40.207 357.955C38 357.724 38 357.724 36 355.724C36.1487 352.825 36.5146 351.25 38.5 349.099C42.9892 346.63 47.8471 344.724 53 344.724C53 344.064 53 343.404 53 342.724C52.2449 342.644 51.4899 342.563 50.7119 342.481C47.2242 342.107 43.7371 341.728 40.25 341.349C39.0628 341.223 37.8755 341.097 36.6523 340.966C11.4925 338.217 11.4925 338.217 4 330.724C4.55556 326.169 4.55556 326.169 6 324.724C7.73764 324.59 9.48036 324.521 11.2227 324.478C12.8555 324.431 12.8555 324.431 14.5212 324.382C15.6899 324.351 16.8585 324.319 18.0625 324.287C28.1774 323.962 37.9902 323.168 48 321.724C54.9201 320.837 61.7811 320.627 68.75 320.599C69.9572 320.592 69.9572 320.592 71.1887 320.585C71.9669 320.587 72.7451 320.589 73.5469 320.591C74.2362 320.593 74.9255 320.594 75.6357 320.595C78 320.724 78 320.724 81.0964 321.197C86.0338 321.864 90.9344 322.099 95.9102 322.295C96.9914 322.337 98.0726 322.38 99.1866 322.424C108.083 322.736 116.971 322.772 125.871 322.716C126.547 322.713 127.222 322.709 127.918 322.705C134.18 322.668 140.441 322.622 146.702 322.553C150.181 322.515 153.659 322.492 157.137 322.479C159.059 322.467 160.981 322.439 162.903 322.41C175.147 322.374 182.961 325.272 192.922 332.08C196.375 333.925 198.147 334.203 202 333.724C202.774 333.394 203.548 333.063 204.346 332.723C208.992 330.975 213.775 331.355 218.688 331.349C220.245 331.313 220.245 331.313 221.834 331.275C229.098 331.248 234.466 332.645 241 335.724C245.234 337.588 247.453 337.956 252 336.724C252.754 336.256 253.508 335.788 254.285 335.306C257.282 333.56 260.118 332.593 263.438 331.599C264.529 331.267 265.621 330.934 266.746 330.591C272.501 329.058 277.933 328.558 283.875 328.599C284.585 328.603 285.294 328.607 286.025 328.612C294.105 328.698 300.506 329.676 308 332.724C308.99 333.054 309.98 333.384 311 333.724C311 334.384 311 335.044 311 335.724C312.98 336.054 314.96 336.384 317 336.724C317 337.384 317 338.044 317 338.724C334.176 337.117 334.176 337.117 348 327.724C350.867 320.306 349.882 309.156 346.852 301.947C344.273 295.216 343.636 288.927 343.625 281.787C343.601 280.944 343.576 280.102 343.551 279.234C343.504 268.999 348.241 260.778 354.938 253.224C374.837 233.882 406.336 240.142 427 253.724Z" fill="#FAFAFA"/>
</g>
<defs>
<clipPath id="clip0_48_3">
<rect width="752" height="752" fill="white"/>
</clipPath>
</defs>
</svg>
